# vtk DataFile Version 3.0
Hexahedral Mesh
ASCII
DATASET UNSTRUCTURED_GRID
POINTS 135 float
-3 -1 -1
-2 -1 -1
-2 0 -1
-3 0 -1
-3 -1 0
-2 -1 0
-2 0 0
-3 0 0
-1 -1 -1
-1 0 -1
-1 -1 0
-1 0 0
-2 1 -1
-3 1 -1
-2 1 0
-3 1 0
-1 1 -1
-1 1 0
-3 -1 1
-2 -1 1
-2 0 1
-3 0 1
-1 -1 1
-1 0 1
-2 1 1
-3 1 1
-1 1 1
0 -1 -1
0 0 -1
0 -1 0
0 0 0
1 -1 -1
1 0 -1
1 -1 0
1 0 0
0 1 -1
0 1 0
1 1 -1
1 1 0
0 -1 1
0 0 1
1 -1 1
1 0 1
0 1 1
1 1 1
2 -1 -1
2 0 -1
2 -1 0
2 0 0
3 -1 -1
3 0 -1
3 -1 0
3 0 0
2 1 -1
2 1 0
3 1 -1
3 1 0
2 -1 1
2 0 1
3 -1 1
3 0 1
2 1 1
3 1 1
-1 -3 -1
0 -3 -1
0 -2 -1
-1 -2 -1
-1 -3 0
0 -3 0
0 -2 0
-1 -2 0
1 -3 -1
1 -2 -1
1 -3 0
1 -2 0
-1 -3 1
0 -3 1
0 -2 1
-1 -2 1
1 -3 1
1 -2 1
0 2 -1
-1 2 -1
0 2 0
-1 2 0
1 2 -1
1 2 0
0 3 -1
-1 3 -1
0 3 0
-1 3 0
1 3 -1
1 3 0
0 2 1
-1 2 1
1 2 1
0 3 1
-1 3 1
1 3 1
-1 -1 2
0 -1 2
0 0 2
-1 0 2
1 -1 2
1 0 2
0 1 2
-1 1 2
1 1 2
-1 -1 3
0 -1 3
0 0 3
-1 0 3
1 -1 3
1 0 3
0 1 3
-1 1 3
1 1 3
-1 -1 -3
0 -1 -3
0 0 -3
-1 0 -3
-1 -1 -2
0 -1 -2
0 0 -2
-1 0 -2
1 -1 -3
1 0 -3
1 -1 -2
1 0 -2
0 1 -3
-1 1 -3
0 1 -2
-1 1 -2
1 1 -3
1 1 -2
CELLS 56 504
8 0 1 2 3 4 5 6 7
8 1 8 9 2 5 10 11 6
8 3 2 12 13 7 6 14 15
8 2 9 16 12 6 11 17 14
8 4 5 6 7 18 19 20 21
8 5 10 11 6 19 22 23 20
8 7 6 14 15 21 20 24 25
8 6 11 17 14 20 23 26 24
8 8 27 28 9 10 29 30 11
8 27 31 32 28 29 33 34 30
8 9 28 35 16 11 30 36 17
8 28 32 37 35 30 34 38 36
8 10 29 30 11 22 39 40 23
8 29 33 34 30 39 41 42 40
8 11 30 36 17 23 40 43 26
8 30 34 38 36 40 42 44 43
8 31 45 46 32 33 47 48 34
8 45 49 50 46 47 51 52 48
8 32 46 53 37 34 48 54 38
8 46 50 55 53 48 52 56 54
8 33 47 48 34 41 57 58 42
8 47 51 52 48 57 59 60 58
8 34 48 54 38 42 58 61 44
8 48 52 56 54 58 60 62 61
8 63 64 65 66 67 68 69 70
8 64 71 72 65 68 73 74 69
8 66 65 27 8 70 69 29 10
8 65 72 31 27 69 74 33 29
8 67 68 69 70 75 76 77 78
8 68 73 74 69 76 79 80 77
8 70 69 29 10 78 77 39 22
8 69 74 33 29 77 80 41 39
8 16 35 81 82 17 36 83 84
8 35 37 85 81 36 38 86 83
8 82 81 87 88 84 83 89 90
8 81 85 91 87 83 86 92 89
8 17 36 83 84 26 43 93 94
8 36 38 86 83 43 44 95 93
8 84 83 89 90 94 93 96 97
8 83 86 92 89 93 95 98 96
8 22 39 40 23 99 100 101 102
8 39 41 42 40 100 103 104 101
8 23 40 43 26 102 101 105 106
8 40 42 44 43 101 104 107 105
8 99 100 101 102 108 109 110 111
8 100 103 104 101 109 112 113 110
8 102 101 105 106 111 110 114 115
8 101 104 107 105 110 113 116 114
8 117 118 119 120 121 122 123 124
8 118 125 126 119 122 127 128 123
8 120 119 129 130 124 123 131 132
8 119 126 133 129 123 128 134 131
8 121 122 123 124 8 27 28 9
8 122 127 128 123 27 31 32 28
8 124 123 131 132 9 28 35 16
8 123 128 134 131 28 32 37 35
CELL_TYPES 56
12
12
12
12
12
12
12
12
12
12
12
12
12
12
12
12
12
12
12
12
12
12
12
12
12
12
12
12
12
12
12
12
12
12
12
12
12
12
12
12
12
12
12
12
12
12
12
12
12
12
12
12
12
12
12
12
